name rise30.2954peak35.7071fall66.7804.mot
datacolumns 19
datarows 33
range 12.05662300000000 12.10995600000000
endheader
time	ground_force1_vx	ground_force1_vy	ground_force1_vz	ground_force1_px	ground_force1_py	ground_force1_pz	ground_force2_vx	ground_force2_vy	ground_force2_vz	ground_force2_px	ground_force2_py	ground_force2_pz	ground_torque1_x	ground_torque1_y	ground_torque1_z	ground_torque2_x	ground_torque2_y	ground_torque2_z	
12.05662300000000	10.25407300000000	694.77065900000002	43.08207200000000	0.22949100000000	0.00000000000000	0.15617800000000	0.00000000000000	0.00000000000000	0.00000000000000	0.00000000000000	0.00000000000000	0.00000000000000	0.00000000000000	18.21224500000000	0.00000000000000	0.00000000000000	0.00000000000000	0.00000000000000	
12.05829100000000	9.98310500000000	695.38921800000003	43.17027400000000	0.22883100000000	0.00000000000000	0.15619900000000	0.00000000000000	0.00000000000000	0.00000000000000	0.00000000000000	0.00000000000000	0.00000000000000	0.00000000000000	18.30247400000000	0.00000000000000	0.00000000000000	0.00000000000000	0.00000000000000	
12.05995500000000	9.70060600000000	696.07797800000003	43.26581700000000	0.22814600000000	0.00000000000000	0.15622300000000	0.00000000000000	0.00000000000000	0.00000000000000	0.00000000000000	0.00000000000000	0.00000000000000	0.00000000000000	18.39777900000000	0.00000000000000	0.00000000000000	0.00000000000000	0.00000000000000	
12.06164200000000	9.40621200000000	696.83549400000004	43.36828400000000	0.22743700000000	0.00000000000000	0.15625200000000	0.00000000000000	0.00000000000000	0.00000000000000	0.00000000000000	0.00000000000000	0.00000000000000	0.00000000000000	18.49801900000000	0.00000000000000	0.00000000000000	0.00000000000000	0.00000000000000	
12.06328800000000	9.09960200000000	697.66028100000005	43.47725800000000	0.22670200000000	0.00000000000000	0.15628500000000	0.00000000000000	0.00000000000000	0.00000000000000	0.00000000000000	0.00000000000000	0.00000000000000	0.00000000000000	18.60304400000000	0.00000000000000	0.00000000000000	0.00000000000000	0.00000000000000	
12.06495500000000	8.78049300000000	698.55081099999995	43.59232500000000	0.22594000000000	0.00000000000000	0.15632200000000	0.00000000000000	0.00000000000000	0.00000000000000	0.00000000000000	0.00000000000000	0.00000000000000	0.00000000000000	18.71270500000000	0.00000000000000	0.00000000000000	0.00000000000000	0.00000000000000	
12.06663100000000	8.44864400000000	699.50552800000003	43.71306900000000	0.22515000000000	0.00000000000000	0.15636300000000	0.00000000000000	0.00000000000000	0.00000000000000	0.00000000000000	0.00000000000000	0.00000000000000	0.00000000000000	18.82684300000000	0.00000000000000	0.00000000000000	0.00000000000000	0.00000000000000	
12.06829500000000	8.10385500000000	700.52284399999996	43.83908000000000	0.22433400000000	0.00000000000000	0.15640700000000	0.00000000000000	0.00000000000000	0.00000000000000	0.00000000000000	0.00000000000000	0.00000000000000	0.00000000000000	18.94529900000000	0.00000000000000	0.00000000000000	0.00000000000000	0.00000000000000	
12.06996300000000	7.74597300000000	701.60115199999996	43.96994800000000	0.22348900000000	0.00000000000000	0.15645500000000	0.00000000000000	0.00000000000000	0.00000000000000	0.00000000000000	0.00000000000000	0.00000000000000	0.00000000000000	19.06790900000000	0.00000000000000	0.00000000000000	0.00000000000000	0.00000000000000	
12.07163800000000	7.37488600000000	702.73882600000002	44.10527100000000	0.22261600000000	0.00000000000000	0.15650700000000	0.00000000000000	0.00000000000000	0.00000000000000	0.00000000000000	0.00000000000000	0.00000000000000	0.00000000000000	19.19450600000000	0.00000000000000	0.00000000000000	0.00000000000000	0.00000000000000	
12.07329600000000	6.99052900000000	703.93422799999996	44.24465400000000	0.22171500000000	0.00000000000000	0.15656100000000	0.00000000000000	0.00000000000000	0.00000000000000	0.00000000000000	0.00000000000000	0.00000000000000	0.00000000000000	19.32491800000000	0.00000000000000	0.00000000000000	0.00000000000000	0.00000000000000	
12.07496100000000	6.59288100000000	705.18570899999997	44.38770500000000	0.22078600000000	0.00000000000000	0.15661900000000	0.00000000000000	0.00000000000000	0.00000000000000	0.00000000000000	0.00000000000000	0.00000000000000	0.00000000000000	19.45897000000000	0.00000000000000	0.00000000000000	0.00000000000000	0.00000000000000	
12.07662500000000	6.18196600000000	706.49161800000002	44.53404300000000	0.21982900000000	0.00000000000000	0.15668000000000	0.00000000000000	0.00000000000000	0.00000000000000	0.00000000000000	0.00000000000000	0.00000000000000	0.00000000000000	19.59648600000000	0.00000000000000	0.00000000000000	0.00000000000000	0.00000000000000	
12.07829300000000	5.75785300000000	707.85029999999995	44.68329700000000	0.21884600000000	0.00000000000000	0.15674300000000	0.00000000000000	0.00000000000000	0.00000000000000	0.00000000000000	0.00000000000000	0.00000000000000	0.00000000000000	19.73728600000000	0.00000000000000	0.00000000000000	0.00000000000000	0.00000000000000	
12.07995800000000	5.32065600000000	709.26010199999996	44.83510400000000	0.21783500000000	0.00000000000000	0.15680900000000	0.00000000000000	0.00000000000000	0.00000000000000	0.00000000000000	0.00000000000000	0.00000000000000	0.00000000000000	19.88118600000000	0.00000000000000	0.00000000000000	0.00000000000000	0.00000000000000	
12.08163200000000	4.87053000000000	710.71937600000001	44.98911100000000	0.21679900000000	0.00000000000000	0.15687700000000	0.00000000000000	0.00000000000000	0.00000000000000	0.00000000000000	0.00000000000000	0.00000000000000	0.00000000000000	20.02800200000000	0.00000000000000	0.00000000000000	0.00000000000000	0.00000000000000	
12.08329600000000	4.40767700000000	712.22648100000004	45.14497900000000	0.21573800000000	0.00000000000000	0.15694800000000	0.00000000000000	0.00000000000000	0.00000000000000	0.00000000000000	0.00000000000000	0.00000000000000	0.00000000000000	20.17754400000000	0.00000000000000	0.00000000000000	0.00000000000000	0.00000000000000	
12.08495400000000	3.93233800000000	713.77978399999995	45.30238100000000	0.21465200000000	0.00000000000000	0.15702000000000	0.00000000000000	0.00000000000000	0.00000000000000	0.00000000000000	0.00000000000000	0.00000000000000	0.00000000000000	20.32962500000000	0.00000000000000	0.00000000000000	0.00000000000000	0.00000000000000	
12.08663000000000	3.44479400000000	715.37766399999998	45.46100100000000	0.21354400000000	0.00000000000000	0.15709400000000	0.00000000000000	0.00000000000000	0.00000000000000	0.00000000000000	0.00000000000000	0.00000000000000	0.00000000000000	20.48405100000000	0.00000000000000	0.00000000000000	0.00000000000000	0.00000000000000	
12.08828800000000	2.94536800000000	717.01850999999999	45.62054000000000	0.21241400000000	0.00000000000000	0.15717000000000	0.00000000000000	0.00000000000000	0.00000000000000	0.00000000000000	0.00000000000000	0.00000000000000	0.00000000000000	20.64063000000000	0.00000000000000	0.00000000000000	0.00000000000000	0.00000000000000	
12.08996700000000	2.43441700000000	718.70072700000003	45.78071200000000	0.21126400000000	0.00000000000000	0.15724800000000	0.00000000000000	0.00000000000000	0.00000000000000	0.00000000000000	0.00000000000000	0.00000000000000	0.00000000000000	20.79916700000000	0.00000000000000	0.00000000000000	0.00000000000000	0.00000000000000	
12.09162900000000	1.91233700000000	720.42273100000000	45.94124500000000	0.21009400000000	0.00000000000000	0.15732600000000	0.00000000000000	0.00000000000000	0.00000000000000	0.00000000000000	0.00000000000000	0.00000000000000	0.00000000000000	20.95946400000000	0.00000000000000	0.00000000000000	0.00000000000000	0.00000000000000	
12.09329000000000	1.37955300000000	722.18295200000000	46.10188500000000	0.20890600000000	0.00000000000000	0.15740500000000	0.00000000000000	0.00000000000000	0.00000000000000	0.00000000000000	0.00000000000000	0.00000000000000	0.00000000000000	21.12132500000000	0.00000000000000	0.00000000000000	0.00000000000000	0.00000000000000	
12.09496200000000	0.83652700000000	723.97983699999997	46.26239300000000	0.20770200000000	0.00000000000000	0.15748500000000	0.00000000000000	0.00000000000000	0.00000000000000	0.00000000000000	0.00000000000000	0.00000000000000	0.00000000000000	21.28455000000000	0.00000000000000	0.00000000000000	0.00000000000000	0.00000000000000	
12.09663600000000	0.28374500000000	725.81184299999995	46.42254600000000	0.20648400000000	0.00000000000000	0.15756600000000	0.00000000000000	0.00000000000000	0.00000000000000	0.00000000000000	0.00000000000000	0.00000000000000	0.00000000000000	21.44894200000000	0.00000000000000	0.00000000000000	0.00000000000000	0.00000000000000	
12.09828900000000	-0.27827800000000	727.67744300000004	46.58213900000000	0.20525200000000	0.00000000000000	0.15764700000000	0.00000000000000	0.00000000000000	0.00000000000000	0.00000000000000	0.00000000000000	0.00000000000000	0.00000000000000	21.61430000000000	0.00000000000000	0.00000000000000	0.00000000000000	0.00000000000000	
12.09995300000000	-0.84900300000000	729.57511899999997	46.74098500000000	0.20400800000000	0.00000000000000	0.15772800000000	0.00000000000000	0.00000000000000	0.00000000000000	0.00000000000000	0.00000000000000	0.00000000000000	0.00000000000000	21.78042500000000	0.00000000000000	0.00000000000000	0.00000000000000	0.00000000000000	
12.10162100000000	-1.42786900000000	731.50336700000003	46.89891300000000	0.20275500000000	0.00000000000000	0.15781000000000	0.00000000000000	0.00000000000000	0.00000000000000	0.00000000000000	0.00000000000000	0.00000000000000	0.00000000000000	21.94711700000000	0.00000000000000	0.00000000000000	0.00000000000000	0.00000000000000	
12.10329100000000	-2.01429900000000	733.46069199999999	47.05577100000000	0.20149200000000	0.00000000000000	0.15789100000000	0.00000000000000	0.00000000000000	0.00000000000000	0.00000000000000	0.00000000000000	0.00000000000000	0.00000000000000	22.11417700000000	0.00000000000000	0.00000000000000	0.00000000000000	0.00000000000000	
12.10495500000000	-2.60769800000000	735.44560500000000	47.21142700000000	0.20022300000000	0.00000000000000	0.15797100000000	0.00000000000000	0.00000000000000	0.00000000000000	0.00000000000000	0.00000000000000	0.00000000000000	0.00000000000000	22.28140700000000	0.00000000000000	0.00000000000000	0.00000000000000	0.00000000000000	
12.10662900000000	-3.20745800000000	737.45662600000003	47.36576500000000	0.19894900000000	0.00000000000000	0.15805100000000	0.00000000000000	0.00000000000000	0.00000000000000	0.00000000000000	0.00000000000000	0.00000000000000	0.00000000000000	22.44860800000000	0.00000000000000	0.00000000000000	0.00000000000000	0.00000000000000	
12.10829200000000	-3.81296400000000	739.49227699999994	47.51868800000000	0.19767100000000	0.00000000000000	0.15813100000000	0.00000000000000	0.00000000000000	0.00000000000000	0.00000000000000	0.00000000000000	0.00000000000000	0.00000000000000	22.61558500000000	0.00000000000000	0.00000000000000	0.00000000000000	0.00000000000000	
12.10995600000000	-4.42359100000000	741.55108299999995	47.67011800000000	0.19639000000000	0.00000000000000	0.15820900000000	0.00000000000000	0.00000000000000	0.00000000000000	0.00000000000000	0.00000000000000	0.00000000000000	0.00000000000000	22.78214300000000	0.00000000000000	0.00000000000000	0.00000000000000	0.00000000000000	
